PathFileType	4	(X/Y/Z)	C:/Users/opensim2020/Desktop/walking_exp_matlab/subject06_cal10_run.trc																																																																																																																																																	
DataRate	CameraRate	NumFrames	NumMarkers	Units	OrigDataRate	OrigDataStartFrame	OrigNumFrames																																																																																																																																													
100	100	4	49	mm	100	242	118																																																																																																																																													
Frame#	Time	LKNE			RTIB			RFRM			RWRA			LTHI			RKNE			RELB			RFHD			LWRA			RUPA			STRN			RASI			CLAV			RSHO			LASI			RTHI			RBHD			LBHD			C7			RWRB			RFIN			RTOE			LSHO			RBAK			LTIB			RANK			LFIN			LANK			RHEE			T10			LHEE			LTOE			LFHD			LPSI			RPSI			LUPA			LELB			LFRM			LWRB			*39			*40			*41			*42			*43			*44			*45			*46			*47			*48		
		X1	Y1	Z1	X2	Y2	Z2	X3	Y3	Z3	X4	Y4	Z4	X5	Y5	Z5	X6	Y6	Z6	X7	Y7	Z7	X8	Y8	Z8	X9	Y9	Z9	X10	Y10	Z10	X11	Y11	Z11	X12	Y12	Z12	X13	Y13	Z13	X14	Y14	Z14	X15	Y15	Z15	X16	Y16	Z16	X17	Y17	Z17	X18	Y18	Z18	X19	Y19	Z19	X20	Y20	Z20	X21	Y21	Z21	X22	Y22	Z22	X23	Y23	Z23	X24	Y24	Z24	X25	Y25	Z25	X26	Y26	Z26	X27	Y27	Z27	X28	Y28	Z28	X29	Y29	Z29	X30	Y30	Z30	X31	Y31	Z31	X32	Y32	Z32	X33	Y33	Z33	X34	Y34	Z34	X35	Y35	Z35	X36	Y36	Z36	X37	Y37	Z37	X38	Y38	Z38	X39	Y39	Z39	X40	Y40	Z40	X41	Y41	Z41	X42	Y42	Z42	X43	Y43	Z43	X44	Y44	Z44	X45	Y45	Z45	X46	Y46	Z46	X47	Y47	Z47	X48	Y48	Z48	X49	Y49	Z49
																																																																																																																																																				
74	0.73	685.19049	444.84796	168.38756	601.09772	348.17645	418.39539	663.86212	1069.16345	536.23419	765.52966	1057.05322	440.54303	663.03943	604.05518	130.00058	799.56995	482.3862	417.33728	590.27893	1143.79944	565.05225	782.83496	1613.13635	316.9903	789.88104	1103.15955	106.35281	611.98285	1243.70691	522.9295	795.64264	1144.11841	258.92944	721.38409	909.91663	397.20227	775.05615	1327.45117	249.6144	718.89587	1377.30896	403.03217	726.73413	905.65759	179.61995	747.37244	597.60046	447.23108	654.84076	1555.55249	299.6319	669.31158	1557.85291	170.98409	667.35535	1411.62708	236.21333	760.73193	1001.7533	478.40509	835.54614	1011.91895	451.42761	485.84155	132.22832	396.15359	721.28973	1361.25854	85.37012	574.39264	1257.93909	317.99652	565.35541	218.40416	189.7359	432.37454	273.14917	385.49353	871.02283	1062.62891	134.88278	479.34512	74.30252	243.15103	387.50165	290.17874	341.32104	590.60065	1095.15552	273.89188	427.86609	80.39775	279.80301	611.93304	32.90902	273.59622	798.16534	1621.06055	185.07956	574.0462	962.25751	203.01654	577.79962	956.59802	371.86154	650.61688	1195.29724	-8.69979	610.30939	1105.37073	-40.31792	713.60431	1050.46313	14.73798	796.23682	1033.77686	93.21835	NaN	NaN	NaN	NaN	NaN	NaN	689.16156	1654.38843	230.93965	NaN	NaN	NaN	NaN	NaN	NaN	NaN	NaN	NaN	NaN	NaN	NaN	NaN	NaN	NaN	NaN	NaN	NaN	NaN	NaN	NaN
75	0.74	703.17963	441.00104	169.05432	668.47955	351.69638	421.07031	686.86407	1076.06238	539.59534	792.46271	1064.12244	447.56497	688.21857	601.547	132.11232	858.19672	497.43973	419.36862	613.14673	1151.94727	565.31165	819.76648	1614.77161	318.24835	836.21887	1112.84753	111.67702	638.08771	1250.55286	521.19696	833.3067	1145.26526	261.77292	757.30151	913.06287	399.00958	813.1723	1328.38171	252.5105	751.79022	1379.29346	403.89951	763.08661	904.58868	180.49458	798.29877	608.70667	449.36792	692.05267	1556.64868	300.41257	707.28186	1558.0874	171.89398	704.96442	1412.04053	236.47183	786.0257	1008.51935	484.49625	862.29065	1018.67609	460.52054	567.36713	128.52771	399.75583	763.164	1363.26318	87.40865	610.63855	1257.95923	314.84546	574.61603	220.63014	189.85683	504.60709	265.12341	387.58542	918.16888	1077.16846	143.40872	481.53885	80.65545	241.52394	458.72705	278.8721	342.9964	628.19843	1095.61987	271.48978	430.94418	89.17794	277.5636	611.79651	32.82632	273.47067	835.85413	1621.81946	186.34624	611.78357	962.82922	202.71086	615.10144	958.70758	370.87454	697.90436	1196.25073	-9.40276	662.76154	1104.72803	-41.27134	766.00269	1055.59985	18.35233	846.85364	1043.8468	99.76273	NaN	NaN	NaN	NaN	NaN	NaN	726.43701	1655.02087	231.09915	NaN	NaN	NaN	NaN	NaN	NaN	NaN	NaN	NaN	NaN	NaN	NaN	NaN	NaN	NaN	NaN	NaN	NaN	NaN	NaN	NaN
76	0.75	722.52747	439.88583	169.51465	734.93213	356.0322	423.02316	710.80548	1086.22131	541.95758	819.76605	1073.61145	453.29245	715.07318	601.86591	133.80722	914.18195	514.81183	421.02487	636.78522	1161.90161	564.84869	857.64307	1618.19165	319.80524	881.30481	1124.83228	116.35861	665.41992	1259.05981	519.51434	870.94952	1148.22729	264.87549	795.0614	918.46783	399.52536	851.16931	1331.2478	255.68849	784.4848	1382.9939	404.90936	800.98187	905.12671	180.4971	847.20953	621.18738	451.1322	729.65771	1560.02649	301.74442	745.27698	1560.52087	173.27754	743.0235	1414.53577	236.79173	812.16663	1018.18872	490.17636	889.35437	1028.27881	467.95789	650.47296	125.35314	401.94601	804.46533	1366.9032	89.61708	647.35339	1260.09351	312.61224	585.48779	225.28883	190.01875	577.78711	256.71368	388.80292	963.10895	1093.78333	151.88908	485.72046	89.77706	239.02171	531.2843	266.66922	343.91855	666.53442	1097.80005	268.99857	435.52612	101.14073	274.66199	612.18866	32.88411	273.18903	873.84277	1624.25928	187.62781	650.57043	964.6767	201.70393	652.69452	963.12421	369.93185	745.64563	1198.76196	-9.32895	714.28516	1106.36865	-41.96934	817.17224	1063.24023	21.98635	895.65692	1056.12292	106.42198	NaN	NaN	NaN	NaN	NaN	NaN	764.30164	1657.87561	231.82353	NaN	NaN	NaN	NaN	NaN	NaN	NaN	NaN	NaN	NaN	NaN	NaN	NaN	NaN	NaN	NaN	NaN	NaN	NaN	NaN	NaN
77	0.76	743.45477	441.89731	170.02119	800.30011	360.70087	424.19836	735.45728	1098.18701	543.11096	847.41492	1084.56067	457.64465	745.07642	604.94659	134.83289	967.07782	533.68445	422.50723	661.52942	1172.75415	563.47858	895.48535	1623.08582	321.07614	925.21362	1138.37915	120.50896	694.13647	1268.4574	518.16278	908.20459	1152.99292	268.1825	834.16058	924.93945	399.06281	889.07135	1335.8949	258.90668	817.57452	1388.3844	405.98566	840.00299	907.75	180.04691	894.41302	634.69049	452.5611	767.69122	1565.32141	303.603	783.03925	1565.01575	175.10149	781.25397	1419.00159	237.50739	839.48853	1029.85901	495.08633	917.40765	1039.81458	474.38968	734.50006	122.97884	402.67819	845.59753	1372.24487	92.01514	683.73199	1264.39429	310.74997	597.78436	233.09088	188.80405	652.05359	248.25824	389.14856	1007.24933	1111.87537	159.14288	492.44693	101.13559	236.00282	604.78271	254.355	343.63501	705.36798	1101.67517	266.75809	443.31454	115.54794	271.09695	613.4483	32.68021	272.9295	912.04907	1628.46765	189.14244	690.52075	967.63525	200.32413	691.05182	969.08014	368.72128	793.73987	1202.73425	-8.68543	764.93317	1109.87634	-42.30387	867.27747	1072.69482	25.37856	942.2619	1069.99658	113.27151	NaN	NaN	NaN	NaN	NaN	NaN	802.61487	1662.73779	233.23016	NaN	NaN	NaN	NaN	NaN	NaN	NaN	NaN	NaN	NaN	NaN	NaN	NaN	NaN	NaN	NaN	NaN	NaN	NaN	NaN	NaN
